<svg xmlns="http://www.w3.org/2000/svg" viewBox="0 0 384 512">
  <defs>
    <linearGradient id="apple-grad" x1="0%" y1="0%" x2="100%" y2="100%">
      <stop offset="0%" stop-color="#FF512F" />
      <stop offset="100%" stop-color="#F09819" />
    </linearGradient>
    <linearGradient id="apple-rainbow" x1="0%" y1="0%" x2="0%" y2="100%">
      <stop offset="0%" stop-color="#55B949"/>
      <stop offset="20%" stop-color="#55B949"/>
      <stop offset="20%" stop-color="#F3B329"/>
      <stop offset="40%" stop-color="#F3B329"/>
      <stop offset="40%" stop-color="#F37E20"/>
      <stop offset="60%" stop-color="#F37E20"/>
      <stop offset="60%" stop-color="#E1373E"/>
      <stop offset="80%" stop-color="#E1373E"/>
      <stop offset="80%" stop-color="#B24F9C"/>
      <stop offset="90%" stop-color="#B24F9C"/>
      <stop offset="90%" stop-color="#2D92D0"/>
      <stop offset="100%" stop-color="#2D92D0"/>
    </linearGradient>
  </defs>
  <path fill="url(#apple-rainbow)" d="M318.7 268.7c-.2-36.7 16.4-64.4 50-84.8-18.8-26.9-47.2-41.7-84.7-44.6-35.5-2.8-74.3 20.7-88.5 20.7-15 0-49.4-19.7-76.4-19.7C63.3 141.2 4 184.8 4 273.5q0 39.3 14.4 81.2c12.8 36.7 59 126.7 107.2 125.2 25.2-.6 43-17.9 75.8-17.9 31.8 0 48.3 17.9 76.4 17.9 48.6-.7 90.4-82.5 102.6-119.3-65.2-30.7-61.7-90-61.7-91.9zm-56.6-164.2c27.3-32.4 24.8-61.9 24-72.5-24.1 1.4-52 16.4-67.9 34.9-17.5 19.8-27.8 44.3-25.6 71.9 26.1 2 49.9-11.4 69.5-34.3z"/>
</svg>
